<svg width="25" height="25" viewBox="0 0 25 25" fill="none" xmlns="http://www.w3.org/2000/svg">
<g clip-path="url(#clip0_7_2934)">
<path d="M12.51 0.378662C5.88802 0.378662 0.52002 5.74666 0.52002 12.3687C0.52002 17.4507 3.67802 21.7927 8.13802 23.5397C8.02902 22.5927 7.94102 21.1317 8.17702 20.0957C8.39402 19.1577 9.57802 14.1347 9.57802 14.1347C9.57802 14.1347 9.22302 13.4147 9.22302 12.3587C9.22302 10.6907 10.19 9.44766 11.394 9.44766C12.42 9.44766 12.914 10.2177 12.914 11.1357C12.914 12.1617 12.263 13.7017 11.917 15.1327C11.631 16.3267 12.519 17.3037 13.693 17.3037C15.825 17.3037 17.463 15.0537 17.463 11.8167C17.463 8.94466 15.401 6.94166 12.45 6.94166C9.03602 6.94166 7.03202 9.49766 7.03202 12.1427C7.03202 13.1687 7.42702 14.2747 7.92002 14.8767C8.02002 14.9937 8.03002 15.1027 8.00002 15.2207C7.91102 15.5957 7.70402 16.4147 7.66402 16.5827C7.61502 16.7997 7.48602 16.8487 7.25902 16.7407C5.75902 16.0397 4.82102 13.8587 4.82102 12.0927C4.82102 8.31266 7.56402 4.83966 12.745 4.83966C16.9 4.83966 20.136 7.80066 20.136 11.7677C20.136 15.9027 17.531 19.2287 13.919 19.2287C12.705 19.2287 11.56 18.5967 11.176 17.8467C11.176 17.8467 10.574 20.1357 10.426 20.6987C10.16 21.7447 9.42902 23.0477 8.93602 23.8467C10.062 24.1907 11.247 24.3787 12.49 24.3787C19.112 24.3787 24.48 19.0107 24.48 12.3887C24.5 5.74666 19.132 0.378662 12.51 0.378662Z" fill="#FFE9DC"/>
</g>
<defs>
<clipPath id="clip0_7_2934">
<rect width="24" height="24" fill="white" transform="translate(0.5 0.378662)"/>
</clipPath>
</defs>
</svg>
