<svg width="393" height="93" viewBox="0 0 393 93" fill="none" xmlns="http://www.w3.org/2000/svg">
<g clip-path="url(#clip0_7_3015)">
<path d="M389.86 78.3127C389.186 77.8642 388.284 78.0884 387.891 78.8167C383.892 86.1005 377.078 88.6776 370.996 88.6776C357.256 88.6776 349.935 75.1191 349.146 59.095C349.09 58.2547 349.09 57.4141 349.09 56.5738V56.5179H388.511C389.074 56.5179 389.525 56.0697 389.525 55.5093C389.806 46.3208 385.637 28.7843 365.252 28.7843C347.457 28.7843 332.196 41.9508 332.196 60.3838C332.196 79.1529 348.02 92.3752 364.351 92.3752C374.6 92.3752 385.583 87.2209 390.592 78.7608L389.86 78.3127ZM362.155 30.3531C370.208 32.1459 372.911 45.8727 372.517 55.0052H349.09C349.372 40.4941 354.89 30.3531 362.155 30.3531Z" fill="#FFE9DC"/>
<path d="M261.751 78.8167C257.753 86.1004 250.939 88.6776 244.857 88.6776C231.117 88.6776 223.796 75.1191 223.007 59.095C222.951 58.2547 222.951 57.4141 222.951 56.5738V56.5179H262.371C262.934 56.5179 263.385 56.0697 263.385 55.5093C263.666 46.3208 259.499 28.7843 239.114 28.7843C221.318 28.7843 206.057 41.9508 206.057 60.3838C206.057 79.1529 221.881 92.3752 238.212 92.3752C248.462 92.3752 259.443 87.2209 264.455 78.7608L263.835 78.3127C263.103 77.8642 262.146 78.0884 261.751 78.8167ZM236.016 30.3531C244.069 32.1459 246.772 45.8727 246.378 55.0052H222.951C223.289 40.4941 228.808 30.3531 236.016 30.3531Z" fill="#FFE9DC"/>
<path d="M137.404 0.378662V75.0631C137.404 84.6438 145.175 92.3756 154.805 92.3756V17.6911C154.805 8.16646 147.034 0.378662 137.404 0.378662Z" fill="#FFE9DC"/>
<path d="M165.448 27.7754C164.547 27.7754 163.815 28.4477 163.815 29.3442C163.702 29.3442 163.759 29.3442 163.815 29.3442C174.515 31.9775 180.653 46.8808 179.301 65.3698C178.288 79.3204 173.67 89.5175 163.815 90.8062C163.815 91.7025 164.547 92.4312 165.505 92.3749C169.503 92.207 173.445 91.3103 177.105 89.7417C192.592 83.0744 201.883 64.5855 194.224 47.1047C188.762 34.6668 177.218 28.1676 165.448 27.7754Z" fill="#FFE9DC"/>
<path d="M0 0.378662V75.0631C0 84.6438 7.77134 92.3756 17.401 92.3756V17.6911C17.401 8.16646 9.62969 0.378662 0 0.378662Z" fill="#FFE9DC"/>
<path d="M28.0441 27.7754C27.1431 27.7754 26.411 28.4477 26.411 29.3442C26.2984 29.3442 26.3547 29.3442 26.411 29.3442C37.1107 31.9775 43.2489 46.8808 41.8973 65.3698C40.8836 79.3204 36.266 89.5175 26.411 90.8062C26.411 91.7025 27.1431 92.4312 28.1004 92.3749C32.0987 92.207 36.0407 91.3103 39.7011 89.7417C55.1876 83.0744 64.4794 64.5855 56.8205 47.1047C51.3582 34.6668 39.8136 28.1676 28.0441 27.7754Z" fill="#FFE9DC"/>
<path d="M124.287 78.8167C120.289 86.1004 113.475 88.6776 107.393 88.6776C93.6527 88.6776 86.3317 75.1191 85.5434 59.095C85.4872 58.2547 85.4871 57.4141 85.4871 56.5738V56.5179H124.907C125.47 56.5179 125.921 56.0697 125.921 55.5093C126.202 46.3208 122.035 28.7843 101.649 28.7843C83.8539 28.7843 68.5928 41.9508 68.5928 60.3838C68.5928 79.1529 84.4172 92.3752 100.748 92.3752C110.997 92.3752 121.978 87.2209 126.991 78.7608L126.371 78.3127C125.583 77.8642 124.682 78.0884 124.287 78.8167ZM98.5521 30.3531C106.605 32.1459 109.308 45.8727 108.914 55.0052H85.4871C85.7688 40.4941 91.2874 30.3531 98.5521 30.3531Z" fill="#FFE9DC"/>
<path d="M326.115 78.9858C322.117 86.2136 315.303 88.7348 309.165 88.7348C294.749 88.7348 287.315 73.7196 287.315 55.5665C287.315 44.193 290.243 35.1726 296.494 31.8109C296.494 30.6904 295.424 29.85 294.298 30.1301C280.614 33.7719 270.421 45.3694 270.421 60.4409C270.421 78.9858 286.076 92.3764 302.576 92.3764C312.825 92.3764 323.807 87.2221 328.819 78.762L328.368 78.4258C327.579 77.9213 326.566 78.1456 326.115 78.9858Z" fill="#FFE9DC"/>
<path d="M302.854 30.9693C308.091 34.331 315.749 41.8948 320.592 47.1615L325.266 33.8267C320.085 31.1374 311.526 28.7843 303.923 28.7843H303.473C302.797 28.7843 302.29 29.3445 302.29 29.9609C302.29 30.4091 302.516 30.7452 302.854 30.9693Z" fill="#FFE9DC"/>
<path d="M361.315 9.23148L377.589 20.1568L378.265 19.6526L361.652 0.603271H360.977L344.364 19.6526L345.04 20.1568L361.315 9.23148Z" fill="#FFE9DC"/>
</g>
<defs>
<clipPath id="clip0_7_3015">
<rect width="393" height="92" fill="white" transform="translate(0 0.378662)"/>
</clipPath>
</defs>
</svg>
